<svg version="1" xmlns="http://www.w3.org/2000/svg" width="933.333" height="933.333" viewBox="0 0 700.000000 700.000000"><path d="M335.4 97.7l.1 13.8 4.1.3 4 .3V151l-104.5.1c-57.5.1-106.5.3-108.8.5-13.7 1.1-28.3 10.6-35.4 23.1-6.8 11.8-6.2-7.7-6.5 227.6-.1 174.8.1 212.9 1.1 213.4.8.2 30-21.9 65.1-49.4 35-27.4 66.9-52.3 70.8-55.3l7.1-5.5 169.5-.1c150.8-.1 170.1-.2 174.6-1.6 15.7-4.9 26.3-14.7 32.5-30.3l2.4-6 .1-136.5c.1-75.1-.2-139-.7-142-1.1-7-6.7-18.4-11.4-23.2-7.4-7.6-17.8-12.9-28-14.2-2.2-.3-51.8-.5-110.2-.6H355v-39h4c2.5 0 4-.5 4.1-1.3 0-.6.1-6.8.2-13.7V84.5l-14-.3-14-.3.1 13.8zm-55.6 224.7l-.3 50.1h-41l-.3-50.1-.2-50.1 21 .1h21l-.2 50zm182.7.1v50h-20.3c-11.2 0-20.6-.4-21-.9-.4-.7-.7-90.3-.3-97.7.1-1.4 2.6-1.6 20.9-1.5l20.7.1v50zM35 301.2c0 22.3.3 28.8 1.3 28.9 5 .6 25.5.4 26.7-.2 1.3-.6 1.5-4.8 1.5-29.1l-.1-28.3-14.7-.1-14.7-.1v28.9zM635.9 272.9c-.1.3-.2 13.1-.3 28.4-.1 17.6.3 28.1.9 28.6.8.6 22.1.8 27.3.2.9-.1 1.2-6.6 1.2-28.9v-28.8l-14.5-.1c-8 0-14.6.3-14.6.6z"/></svg>